<svg width="2924" height="567" viewBox="0 0 2924 567" fill="none" xmlns="http://www.w3.org/2000/svg">
<path d="M1332.98 255.708C1318.48 255.708 1304.88 253.15 1292.16 248.033C1279.45 242.916 1268.25 235.822 1258.56 226.751C1248.86 217.603 1241.3 207.02 1235.88 195.003C1230.45 182.986 1227.74 170.078 1227.74 156.278C1227.74 142.4 1230.45 129.453 1235.88 117.436C1241.38 105.341 1248.94 94.7584 1258.56 85.6875C1268.25 76.5391 1279.41 69.4064 1292.05 64.2895C1304.76 59.1726 1318.33 56.6141 1332.75 56.6141C1344.53 56.6141 1355.74 58.281 1366.36 61.6147C1377.06 64.9485 1382.29 66.0794 1389.89 71.5064L1377.52 106.737C1372.33 102.628 1366.01 99.4101 1358.57 97.0842C1351.12 94.7584 1343.33 93.5954 1335.19 93.5954C1325.66 93.5954 1316.82 95.1848 1308.68 98.3635C1300.61 101.542 1293.56 105.961 1287.51 111.621C1281.54 117.281 1276.89 123.909 1273.56 131.507C1270.22 139.105 1268.56 147.323 1268.56 156.161C1268.56 165 1270.22 173.218 1273.56 180.815C1276.89 188.413 1281.54 195.042 1287.51 200.702C1293.56 206.361 1300.61 210.78 1308.68 213.959C1316.82 217.138 1325.66 218.727 1335.19 218.727C1343.33 218.727 1351.12 217.564 1358.57 215.238C1366.01 212.912 1372.33 209.695 1377.52 205.586L1389.89 244.428C1382.6 249.7 1377.56 247.18 1366.94 250.592C1356.32 254.003 1345 255.708 1332.98 255.708Z" fill="#003267"/>
<path d="M1469.31 255.708C1456.21 255.708 1444.39 253.034 1433.84 247.684C1423.3 242.257 1414.93 234.814 1408.72 225.356C1402.52 215.82 1399.42 204.849 1399.42 192.445C1399.42 180.04 1402.48 169.109 1408.61 159.65C1414.81 150.114 1423.18 142.671 1433.73 137.322C1444.35 131.895 1456.21 129.181 1469.31 129.181C1482.49 129.181 1494.36 131.895 1504.9 137.322C1515.44 142.671 1523.78 150.114 1529.9 159.65C1536.1 169.109 1539.21 180.04 1539.21 192.445C1539.21 204.849 1536.1 215.82 1529.9 225.356C1523.78 234.814 1515.44 242.257 1504.9 247.684C1494.36 253.034 1482.49 255.708 1469.31 255.708ZM1469.43 225.24C1475.48 225.24 1480.98 223.844 1485.94 221.053C1490.91 218.262 1494.82 214.424 1497.69 209.54C1500.56 204.578 1501.99 198.88 1501.99 192.445C1501.99 186.01 1500.56 180.35 1497.69 175.466C1494.82 170.504 1490.91 166.628 1485.94 163.837C1480.98 161.046 1475.48 159.65 1469.43 159.65C1463.3 159.65 1457.76 161.046 1452.8 163.837C1447.92 166.628 1444.04 170.504 1441.17 175.466C1438.3 180.35 1436.87 186.01 1436.87 192.445C1436.87 198.88 1438.3 204.578 1441.17 209.54C1444.04 214.424 1447.92 218.262 1452.8 221.053C1457.76 223.844 1463.3 225.24 1469.43 225.24Z" fill="#003267"/>
<path d="M1561.06 251.987V132.903H1596.76V140.999C1601.33 135.882 1607.03 136.934 1613.85 133.833C1620.76 130.732 1628.35 129.181 1636.65 129.181C1645.8 129.181 1653.82 131.197 1660.72 135.228C1667.7 139.182 1673.16 144.726 1677.12 151.858C1681.07 158.914 1683.05 167.17 1683.05 176.629V251.987H1647.35V184.188C1647.35 175.66 1645.1 169.031 1640.6 164.302C1636.18 159.495 1630.1 157.092 1622.34 157.092C1617.07 157.092 1612.5 158.177 1608.62 160.348C1604.82 162.441 1601.88 165.348 1599.78 169.07C1597.77 172.714 1596.76 176.862 1596.76 181.513V251.987H1561.06Z" fill="#003267"/>
<path d="M1852.18 255.708C1841.25 255.708 1831.28 252.995 1822.29 247.568C1813.38 242.063 1806.28 234.543 1801.01 225.007C1795.81 215.393 1793.22 204.462 1793.22 192.212C1793.22 180.273 1795.74 169.574 1800.78 160.115C1805.82 150.579 1812.75 143.059 1821.59 137.554C1830.51 131.972 1840.7 129.181 1852.18 129.181C1860.63 129.181 1868.5 130.809 1875.79 134.066C1883.15 137.244 1889.16 141.702 1893.81 147.439V132.903H1929.51V251.987H1893.81V236.287C1888.38 242.567 1882.14 247.374 1875.09 250.708C1868.03 254.042 1860.4 255.708 1852.18 255.708ZM1862.76 225.356C1868.96 225.356 1874.47 223.96 1879.27 221.169C1884.08 218.301 1887.84 214.386 1890.56 209.424C1893.27 204.462 1894.63 198.802 1894.63 192.445C1894.63 186.01 1893.23 180.35 1890.44 175.466C1887.73 170.504 1883.97 166.628 1879.16 163.837C1874.43 160.968 1868.96 159.534 1862.76 159.534C1856.64 159.534 1851.17 160.968 1846.36 163.837C1841.56 166.628 1837.76 170.504 1834.97 175.466C1832.18 180.428 1830.78 186.087 1830.78 192.445C1830.78 198.802 1832.14 204.462 1834.85 209.424C1837.64 214.386 1841.44 218.301 1846.25 221.169C1851.05 223.96 1856.56 225.356 1862.76 225.356Z" fill="#003267"/>
<path d="M2039.77 255.708C2031.56 255.708 2023.84 254.003 2016.63 250.592C2009.42 247.18 2003.18 242.412 1997.91 236.287V251.987H1962.21V51.9624H1997.91V147.439C2002.64 141.702 2008.57 137.244 2015.7 134.066C2022.83 130.809 2030.55 129.181 2038.84 129.181C2050.32 129.181 2060.55 131.972 2069.55 137.554C2078.54 143.059 2085.59 150.579 2090.71 160.115C2095.83 169.574 2098.39 180.35 2098.39 192.445C2098.39 204.772 2095.75 215.704 2090.48 225.24C2085.21 234.776 2078.11 242.257 2069.2 247.684C2060.36 253.034 2050.55 255.708 2039.77 255.708ZM2029.08 225.356C2035.35 225.356 2040.86 223.96 2045.59 221.169C2050.32 218.301 2054.04 214.424 2056.75 209.54C2059.47 204.578 2060.82 198.957 2060.82 192.677C2060.82 186.32 2059.43 180.66 2056.64 175.699C2053.85 170.659 2050.09 166.705 2045.36 163.837C2040.63 160.968 2035.2 159.534 2029.08 159.534C2022.95 159.534 2017.45 160.968 2012.56 163.837C2007.75 166.705 2003.96 170.62 2001.16 175.582C1998.37 180.544 1996.98 186.243 1996.98 192.677C1996.98 198.957 1998.33 204.578 2001.05 209.54C2003.84 214.424 2007.64 218.301 2012.45 221.169C2017.33 223.96 2022.87 225.356 2029.08 225.356Z" fill="#003267"/>
<path d="M2121.78 251.987V132.903H2157.48V251.987H2121.78ZM2139.68 108.132C2135.81 108.132 2132.24 107.202 2128.99 105.341C2125.81 103.403 2123.25 100.806 2121.31 97.5494C2119.37 94.2932 2118.4 90.7269 2118.4 86.8504C2118.4 82.974 2119.37 79.4464 2121.31 76.2677C2123.25 73.089 2125.81 70.5693 2128.99 68.7086C2132.24 66.7704 2135.81 65.8013 2139.68 65.8013C2143.56 65.8013 2147.09 66.7704 2150.27 68.7086C2153.45 70.5693 2155.97 73.089 2157.83 76.2677C2159.76 79.4464 2160.73 82.974 2160.73 86.8504C2160.73 90.7269 2159.76 94.2932 2157.83 97.5494C2155.97 100.806 2153.45 103.403 2150.27 105.341C2147.09 107.202 2143.56 108.132 2139.68 108.132Z" fill="#003267"/>
<path d="M2190.27 251.987V51.9624H2225.97V251.987H2190.27Z" fill="#003267"/>
<path d="M2258.53 251.987V132.903H2294.23V251.987H2258.53ZM2276.44 108.132C2272.56 108.132 2269 107.202 2265.74 105.341C2262.56 103.403 2260 100.806 2258.06 97.5494C2256.13 94.2932 2255.16 90.7269 2255.16 86.8504C2255.16 82.974 2256.13 79.4464 2258.06 76.2677C2260 73.089 2262.56 70.5693 2265.74 68.7086C2269 66.7704 2272.56 65.8013 2276.44 65.8013C2280.31 65.8013 2283.84 66.7704 2287.02 68.7086C2290.2 70.5693 2292.72 73.089 2294.58 76.2677C2296.52 79.4464 2297.49 82.974 2297.49 86.8504C2297.49 90.7269 2296.52 94.2932 2294.58 97.5494C2292.72 100.806 2290.2 103.403 2287.02 105.341C2283.84 107.202 2280.31 108.132 2276.44 108.132Z" fill="#003267"/>
<path d="M2376.33 255.708C2365.55 255.708 2355.71 253.034 2346.79 247.684C2337.95 242.257 2330.9 234.776 2325.63 225.24C2320.35 215.704 2317.72 204.772 2317.72 192.445C2317.72 180.35 2320.28 169.574 2325.39 160.115C2330.51 150.579 2337.53 143.059 2346.44 137.554C2355.44 131.972 2365.71 129.181 2377.26 129.181C2385.63 129.181 2393.39 130.809 2400.52 134.066C2407.65 137.244 2413.58 141.702 2418.31 147.439V51.9624H2454.01V251.987H2418.31V236.287C2413.04 242.412 2406.8 247.18 2399.59 250.592C2392.38 254.003 2384.63 255.708 2376.33 255.708ZM2387.03 225.356C2393.31 225.356 2398.85 223.96 2403.66 221.169C2408.47 218.301 2412.23 214.386 2414.94 209.424C2417.73 204.462 2419.13 198.841 2419.13 192.561C2419.13 186.204 2417.73 180.544 2414.94 175.582C2412.23 170.62 2408.47 166.705 2403.66 163.837C2398.85 160.968 2393.35 159.534 2387.15 159.534C2381.02 159.534 2375.56 160.968 2370.75 163.837C2366.02 166.705 2362.26 170.659 2359.47 175.699C2356.68 180.66 2355.28 186.32 2355.28 192.677C2355.28 198.957 2356.64 204.578 2359.35 209.54C2362.07 214.424 2365.83 218.301 2370.63 221.169C2375.44 223.96 2380.91 225.356 2387.03 225.356Z" fill="#003267"/>
<path d="M2536.37 255.708C2525.43 255.708 2515.47 252.995 2506.48 247.568C2497.56 242.063 2490.47 234.543 2485.2 225.007C2480 215.393 2477.4 204.462 2477.4 192.212C2477.4 180.273 2479.92 169.574 2484.96 160.115C2490 150.579 2496.94 143.059 2505.78 137.554C2514.7 131.972 2524.89 129.181 2536.37 129.181C2544.82 129.181 2552.68 130.809 2559.97 134.066C2567.34 137.244 2573.35 141.702 2578 147.439V132.903H2613.7V251.987H2578V236.287C2572.57 242.567 2566.33 247.374 2559.27 250.708C2552.22 254.042 2544.58 255.708 2536.37 255.708ZM2546.95 225.356C2553.15 225.356 2558.65 223.96 2563.46 221.169C2568.27 218.301 2572.03 214.386 2574.74 209.424C2577.46 204.462 2578.81 198.802 2578.81 192.445C2578.81 186.01 2577.42 180.35 2574.63 175.466C2571.91 170.504 2568.15 166.628 2563.35 163.837C2558.62 160.968 2553.15 159.534 2546.95 159.534C2540.82 159.534 2535.36 160.968 2530.55 163.837C2525.74 166.628 2521.94 170.504 2519.15 175.466C2516.36 180.428 2514.97 186.087 2514.97 192.445C2514.97 198.802 2516.32 204.462 2519.04 209.424C2521.83 214.386 2525.63 218.301 2530.43 221.169C2535.24 223.96 2540.75 225.356 2546.95 225.356Z" fill="#003267"/>
<path d="M2695.7 255.708C2684.93 255.708 2675.08 253.034 2666.16 247.684C2657.32 242.257 2650.27 234.776 2645 225.24C2639.73 215.704 2637.09 204.772 2637.09 192.445C2637.09 180.35 2639.65 169.574 2644.77 160.115C2649.88 150.579 2656.9 143.059 2665.81 137.554C2674.81 131.972 2685.08 129.181 2696.63 129.181C2705.01 129.181 2712.76 130.809 2719.89 134.066C2727.02 137.244 2732.95 141.702 2737.68 147.439V51.9624H2773.39V251.987H2737.68V236.287C2732.41 242.412 2726.17 247.18 2718.96 250.592C2711.75 254.003 2704 255.708 2695.7 255.708ZM2706.4 225.356C2712.68 225.356 2718.22 223.96 2723.03 221.169C2727.84 218.301 2731.6 214.386 2734.31 209.424C2737.1 204.462 2738.5 198.841 2738.5 192.561C2738.5 186.204 2737.1 180.544 2734.31 175.582C2731.6 170.62 2727.84 166.705 2723.03 163.837C2718.22 160.968 2712.72 159.534 2706.52 159.534C2700.39 159.534 2694.93 160.968 2690.12 163.837C2685.39 166.705 2681.63 170.659 2678.84 175.699C2676.05 180.66 2674.65 186.32 2674.65 192.677C2674.65 198.957 2676.01 204.578 2678.72 209.54C2681.44 214.424 2685.2 218.301 2690 221.169C2694.81 223.96 2700.28 225.356 2706.4 225.356Z" fill="#003267"/>
<path d="M2863.29 255.708C2850.43 255.708 2838.87 252.956 2828.64 247.452C2818.48 241.87 2810.42 234.31 2804.45 224.774C2798.48 215.238 2795.5 204.462 2795.5 192.445C2795.5 183.607 2797.16 175.35 2800.5 167.674C2803.91 159.999 2808.64 153.293 2814.68 147.556C2820.73 141.741 2827.75 137.244 2835.73 134.066C2843.72 130.809 2852.36 129.181 2861.67 129.181C2874.07 129.181 2884.93 131.778 2894.23 136.973C2903.61 142.09 2910.9 149.222 2916.09 158.371C2921.36 167.519 2924 178.18 2924 190.352C2924 191.359 2923.96 192.251 2923.88 193.026C2923.88 193.724 2923.77 195.081 2923.53 197.097H2832.24C2832.24 203.144 2833.6 208.416 2836.31 212.912C2839.11 217.409 2842.98 220.937 2847.94 223.495C2852.91 225.976 2858.68 227.217 2865.27 227.217C2871.47 227.217 2876.94 226.015 2881.67 223.611C2886.48 221.208 2891.09 217.37 2895.51 212.098L2921.21 225.007C2915.63 234.621 2907.72 242.141 2897.49 247.568C2887.25 252.995 2875.85 255.708 2863.29 255.708ZM2833.52 177.327H2888.88C2888.1 172.752 2886.44 168.799 2883.88 165.465C2881.4 162.131 2878.22 159.573 2874.34 157.789C2870.47 156.006 2866.09 155.115 2861.2 155.115C2856.01 155.115 2851.43 156.006 2847.48 157.789C2843.53 159.573 2840.35 162.131 2837.94 165.465C2835.54 168.799 2834.07 172.752 2833.52 177.327Z" fill="#003267"/>
<path d="M1751.3 251.987H1715.6V212.68V159.999H1699.67V132.903H1715.6V88.2459H1751.3V132.903H1777.47V159.999H1751.3V210.121V221.482V236.287V251.987Z" fill="#003267"/>
<path d="M1332.98 515.209C1318.48 515.209 1304.88 512.651 1292.16 507.534C1279.45 502.417 1268.25 495.323 1258.56 486.252C1248.86 477.104 1241.3 466.521 1235.88 454.504C1230.45 442.487 1227.74 429.579 1227.74 415.779C1227.74 401.901 1230.45 388.954 1235.88 376.937C1241.38 364.842 1248.94 354.259 1258.56 345.188C1268.25 336.04 1279.41 328.907 1292.05 323.79C1304.76 318.674 1318.33 316.115 1332.75 316.115C1344.53 316.115 1355.74 317.782 1366.36 321.116C1377.06 324.449 1386.21 328.83 1393.8 334.257L1377.52 366.238C1372.33 362.129 1366.01 358.911 1358.57 356.585C1351.12 354.259 1343.33 353.096 1335.19 353.096C1325.66 353.096 1316.82 354.686 1308.68 357.864C1300.61 361.043 1293.56 365.462 1287.51 371.122C1281.54 376.782 1276.89 383.41 1273.56 391.008C1270.22 398.606 1268.56 406.824 1268.56 415.662C1268.56 424.501 1270.22 432.719 1273.56 440.316C1276.89 447.914 1281.54 454.543 1287.51 460.203C1293.56 465.862 1300.61 470.281 1308.68 473.46C1316.82 476.639 1325.66 478.228 1335.19 478.228C1343.33 478.228 1351.12 477.065 1358.57 474.739C1366.01 472.413 1372.33 469.196 1377.52 465.087L1393.8 497.068C1386.52 502.34 1377.56 506.681 1366.94 510.093C1356.32 513.504 1345 515.209 1332.98 515.209Z" fill="#003267"/>
<path d="M1469.31 515.209C1456.21 515.209 1444.39 512.535 1433.84 507.185C1423.3 501.758 1414.93 494.315 1408.72 484.857C1402.52 475.321 1399.42 464.35 1399.42 451.946C1399.42 439.541 1402.48 428.61 1408.61 419.151C1414.81 409.615 1423.18 402.172 1433.73 396.823C1444.35 391.396 1456.21 388.682 1469.31 388.682C1482.49 388.682 1494.36 391.396 1504.9 396.823C1515.44 402.172 1523.78 409.615 1529.9 419.151C1536.1 428.61 1539.21 439.541 1539.21 451.946C1539.21 464.35 1536.1 475.321 1529.9 484.857C1523.78 494.315 1515.44 501.758 1504.9 507.185C1494.36 512.535 1482.49 515.209 1469.31 515.209ZM1469.43 484.741C1475.48 484.741 1480.98 483.345 1485.94 480.554C1490.91 477.763 1494.82 473.925 1497.69 469.041C1500.56 464.079 1501.99 458.381 1501.99 451.946C1501.99 445.511 1500.56 439.851 1497.69 434.967C1494.82 430.005 1490.91 426.129 1485.94 423.338C1480.98 420.547 1475.48 419.151 1469.43 419.151C1463.3 419.151 1457.76 420.547 1452.8 423.338C1447.92 426.129 1444.04 430.005 1441.17 434.967C1438.3 439.851 1436.87 445.511 1436.87 451.946C1436.87 458.381 1438.3 464.079 1441.17 469.041C1444.04 473.925 1447.92 477.763 1452.8 480.554C1457.76 483.345 1463.3 484.741 1469.43 484.741Z" fill="#003267"/>
<path d="M1561.06 511.488V392.404H1596.76V405.661C1601.33 400.544 1607.03 396.435 1613.86 393.334C1620.76 390.233 1628.35 388.682 1636.65 388.682C1645.8 388.682 1653.82 390.698 1660.72 394.729C1667.7 398.683 1673.16 404.227 1677.12 411.359C1681.07 418.415 1683.05 426.671 1683.05 436.13V511.488H1647.35V443.689C1647.35 435.161 1645.1 428.532 1640.6 423.803C1636.18 418.996 1630.1 416.593 1622.34 416.593C1617.07 416.593 1612.5 417.678 1608.62 419.849C1604.82 421.942 1601.88 424.849 1599.78 428.571C1597.77 432.215 1596.76 436.362 1596.76 441.014V511.488H1561.06Z" fill="#003267"/>
<path d="M1746.06 515.209C1735.99 515.209 1726.95 513.62 1718.97 510.441C1711.06 507.263 1704.47 502.611 1699.2 496.486L1714.2 472.53C1719.16 477.802 1724.36 481.833 1729.78 484.624C1735.21 487.415 1740.64 488.811 1746.06 488.811C1749.09 488.811 1751.69 488.307 1753.86 487.299C1756.1 486.291 1757.85 484.857 1759.09 482.996C1760.41 481.058 1761.07 478.732 1761.07 476.019C1761.07 472.917 1760.17 470.475 1758.39 468.692C1756.69 466.909 1754.05 465.281 1750.48 463.808C1746.92 462.257 1742.3 460.319 1736.64 457.993C1731.84 455.977 1727.22 453.69 1722.81 451.132C1718.39 448.573 1714.78 445.317 1711.99 441.363C1709.28 437.409 1707.92 432.409 1707.92 426.361C1707.92 418.996 1709.97 412.522 1714.08 406.94C1718.19 401.281 1723.85 396.861 1731.06 393.683C1738.35 390.504 1746.72 388.915 1756.18 388.915C1762.07 388.915 1768.24 389.806 1774.67 391.59C1781.18 393.373 1788.12 396.086 1795.49 399.73L1783.28 422.64C1773.28 416.205 1764.32 412.988 1756.41 412.988C1752 412.988 1748.47 413.957 1745.83 415.895C1743.2 417.833 1741.88 420.275 1741.88 423.221C1741.88 426.012 1743.23 428.455 1745.95 430.548C1748.74 432.564 1752.11 434.386 1756.07 436.014C1760.1 437.564 1763.93 438.998 1767.58 440.316C1773.55 442.487 1778.82 444.891 1783.39 447.527C1788.05 450.163 1791.69 453.613 1794.33 457.877C1796.96 462.063 1798.28 467.684 1798.28 474.739C1798.28 483.345 1796.19 490.672 1792 496.719C1787.89 502.689 1781.92 507.263 1774.09 510.441C1766.34 513.62 1757 515.209 1746.06 515.209Z" fill="#003267"/>
<path d="M1880.43 515.209C1858.73 515.209 1843.07 510.907 1833.45 502.301C1823.84 493.695 1819.03 479.624 1819.03 460.086V392.404H1854.73V451.713C1854.73 464.273 1856.67 473.15 1860.55 478.344C1864.5 483.539 1871.13 486.136 1880.43 486.136C1889.89 486.136 1896.52 483.539 1900.32 478.344C1904.2 473.15 1906.14 464.273 1906.14 451.713V392.404H1941.84V460.086C1941.84 479.624 1937.03 493.695 1927.42 502.301C1917.88 510.907 1902.22 515.209 1880.43 515.209Z" fill="#003267"/>
<path d="M1971.75 511.488V311.463H2007.45V511.488H1971.75Z" fill="#003267"/>
<path d="M2130.87 511.488V392.404H2166.57V511.488H2130.87ZM2148.78 367.633C2144.9 367.633 2141.34 366.703 2138.08 364.842C2134.9 362.904 2132.34 360.307 2130.4 357.05C2128.47 353.794 2127.5 350.228 2127.5 346.351C2127.5 342.475 2128.47 338.947 2130.4 335.769C2132.34 332.59 2134.9 330.07 2138.08 328.21C2141.34 326.271 2144.9 325.302 2148.78 325.302C2152.66 325.302 2156.18 326.271 2159.36 328.21C2162.54 330.07 2165.06 332.59 2166.92 335.769C2168.86 338.947 2169.83 342.475 2169.83 346.351C2169.83 350.228 2168.86 353.794 2166.92 357.05C2165.06 360.307 2162.54 362.904 2159.36 364.842C2156.18 366.703 2152.66 367.633 2148.78 367.633Z" fill="#003267"/>
<path d="M2238.01 511.488L2175.44 392.404H2217.54L2249.98 464.273L2282.43 392.404H2324.53L2261.85 511.488H2238.01Z" fill="#003267"/>
<path d="M2382.81 515.209C2371.88 515.209 2361.92 512.496 2352.93 507.069C2344.01 501.564 2336.92 494.044 2331.64 484.508C2326.45 474.894 2323.85 463.963 2323.85 451.713C2323.85 439.774 2326.37 429.075 2331.41 419.616C2336.45 410.08 2343.39 402.56 2352.23 397.055C2361.14 391.473 2371.34 388.682 2382.81 388.682C2391.26 388.682 2399.13 390.31 2406.42 393.567C2413.79 396.745 2419.79 401.203 2424.45 406.94V392.404H2460.15V511.488H2424.45V495.788C2419.02 502.068 2412.78 506.875 2405.72 510.209C2398.67 513.543 2391.03 515.209 2382.81 515.209ZM2393.4 484.857C2399.6 484.857 2405.1 483.461 2409.91 480.67C2414.72 477.802 2418.48 473.886 2421.19 468.925C2423.9 463.963 2425.26 458.303 2425.26 451.946C2425.26 445.511 2423.86 439.851 2421.07 434.967C2418.36 430.005 2414.6 426.129 2409.79 423.338C2405.06 420.469 2399.6 419.035 2393.4 419.035C2387.27 419.035 2381.8 420.469 2377 423.338C2372.19 426.129 2368.39 430.005 2365.6 434.967C2362.81 439.929 2361.41 445.588 2361.41 451.946C2361.41 458.303 2362.77 463.963 2365.48 468.925C2368.28 473.886 2372.07 477.802 2376.88 480.67C2381.69 483.461 2387.19 484.857 2393.4 484.857Z" fill="#003267"/>
<path d="M2087.16 511.488H2051.46V472.181V419.5H2035.53V392.404H2051.46V347.747H2087.16V392.404H2113.33V419.5H2087.16V469.622V480.983V495.788V511.488Z" fill="#003267"/>
<path d="M802.747 374.898H895.038V566.422H802.747V374.898Z" fill="#003267"/>
<path d="M421.87 374.898H514.161V566.422H421.87V374.898Z" fill="#003267"/>
<path d="M974.484 6.25H1061.87V566.422H974.484V6.25Z" fill="#003267"/>
<path d="M92.8979 566.422H0.607422V220.089L326.119 220.088V307.379H92.8979V566.422Z" fill="#003267"/>
<path d="M0.607422 99.4678V8.57812H418.487L652.702 242.793L889.918 5.86384C891.808 3.97571 895.038 5.31461 895.038 7.98645V128L652.24 369.623L380.839 99.4678H0.607422Z" fill="#003267"/>
</svg>
